Coordinates
version=1
nRows=21
nColumns=33
inDegrees=yes

Units are S.I. units (second, meters, Newtons, ...)
Angles are in degrees.

endheader
time	ground_thorax_rot_x	ground_thorax_rot_y	ground_thorax_rot_z	ground_thorax_tx	ground_thorax_ty	ground_thorax_tz	clav_prot_r	clav_elev_r	scapula_abduction_r	scapula_elevation_r	scapula_upward_rot_r	scapula_winging_r	shoulder_elv_r	plane_of_elev_r	axial_rot_r	elbow_flexion_r	pro_sup_r	wrist_flex_r	wrist_dev_r	clav_prot_l	clav_elev_l	scapula_abduction_l	scapula_elevation_l	scapula_upward_rot_l	scapula_winging_l	shoulder_elv_l	plane_of_elev_l	axial_rot_l	elbow_flexion_l	pro_sup_l	wrist_flex_l	wrist_dev_l
      7.11000000	     35.70412658	     12.24345492	     16.49105857	    -80.82864010	    764.96463626	      6.28771372	     17.79441501	     34.29596667	     45.00000000	     37.34196284	    -34.33764507	   1359.22581610	  -2993.87769736	    144.53872683	    179.99999979	   2165.75643488	     51.80913236	     20.35649132	     13.52117231	     -4.17912150	    -45.00000000	    -45.00000000	     45.00000000	     10.70742299	  -2773.70552321	  -1724.75672420	     12.85128292	    179.99999979	   1085.46738039	    230.73309120	      5.99781119	    -13.37825482
      7.12000000	     35.48210832	     12.00949625	     16.36080327	    -79.37772486	    765.09250587	      6.61839222	     17.72362822	     34.15194966	     45.00000000	     37.09472911	    -33.82306298	   1359.25051019	  -2993.95389404	    144.56395399	    179.99999979	   2165.79174854	     51.54483168	     20.39512897	     13.54694738	     -4.10473569	    -45.00000000	    -45.00000000	     45.00000000	     10.33416220	  -2774.17148072	  -1724.80735734	     12.88535059	    179.99999979	   1085.30727058	    230.81860397	      5.91914360	    -13.35290149
      7.13000000	     35.28915073	     12.14511697	     16.77406084	    -78.02979562	    765.26074104	      6.93765899	     16.84880311	     33.96816179	     45.00000000	     37.35825788	    -33.61561757	   1360.20613218	  -2994.01008188	    145.57817962	    179.99999979	   2165.94308048	     51.35070273	     20.59171452	     13.56197958	     -3.92013753	    -45.00000000	    -45.00000000	     45.00000000	      9.61634945	  -2774.49116495	  -1724.81301083	     12.65963697	    179.99999979	   1085.02628630	    230.80916974	      5.73727866	    -13.23943782
      7.14000000	     35.02850216	     11.73077283	     16.36726028	    -76.78841232	    765.46077893	      7.24009222	     17.45207387	     33.79238466	     45.00000000	     36.88828543	    -33.13764847	   1359.61921360	  -2994.13460897	    144.92131989	    179.99999979	   2165.98912946	     51.20534740	     20.58567996	     13.54223242	     -3.89312709	    -45.00000000	    -45.00000000	     45.00000000	      9.39660342	  -2775.03975936	  -1724.76685244	     12.84852172	    179.99999979	   1084.91053260	    230.72762128	      5.72501664	    -13.26264085
      7.15000000	     34.90281275	     11.40500240	     16.01456435	    -75.65139032	    765.68769855	      7.52200768	     17.45179252	     33.85762639	     45.00000000	     36.56359622	    -32.57705338	   1359.41629703	  -2994.05858946	    144.70767574	    179.99999979	   2166.04269706	     51.12179103	     20.59474398	     13.55885818	     -3.91386170	    -45.00000000	    -45.00000000	     45.00000000	      9.42639787	  -2775.38401716	  -1724.87873192	     13.00033557	    179.99999979	   1084.97075560	    230.52811036	      5.74773703	    -13.25594342
      7.16000000	     34.74909975	     11.13126108	     15.82754083	    -74.61194613	    765.93690963	      7.78388962	     17.44158939	     33.76522013	     45.00000000	     36.40038898	    -32.13108282	   1359.45293115	  -2994.16553341	    144.64577443	    179.99999979	   2166.08853861	     51.10262902	     20.66286762	     13.56794123	     -3.94936308	    -45.00000000	    -45.00000000	     45.00000000	      9.41244950	  -2775.67665104	  -1724.91110206	     13.03007449	    179.99999979	   1084.87733328	    230.22349260	      5.71134023	    -13.23100743
      7.17000000	     34.57787255	     10.97688422	     15.79317062	    -73.66287080	    766.20448185	      8.02796427	     17.28084169	     33.70983405	     45.00000000	     36.34319709	    -31.87894332	   1359.63433559	  -2994.21236491	    144.83007393	    179.99999979	   2166.30532025	     51.09861519	     20.78917020	     13.53754349	     -3.92889999	    -45.00000000	    -45.00000000	     45.00000000	      9.24683260	  -2775.95750226	  -1724.88186478	     13.03892171	    179.99999979	   1084.80292578	    229.89820349	      5.66044785	    -13.17181350
      7.18000000	     34.48025738	     10.76212394	     15.66790833	    -72.79172786	    766.48713519	      8.25926081	     17.35467431	     33.65209495	     45.00000000	     36.16223637	    -31.55889250	   1359.57323949	  -2994.21018887	    144.62875683	    179.99999979	   2166.27909520	     51.16579178	     20.81551363	     13.54075097	     -3.92254281	    -45.00000000	    -45.00000000	     45.00000000	      9.16642985	  -2776.22264068	  -1724.94076881	     13.07654214	    179.99999979	   1084.82957293	    229.49999713	      5.67771578	    -13.16132716
      7.19000000	     34.30286480	     10.58696111	     15.69672628	    -71.99828982	    766.77954600	      8.47912110	     17.20317900	     33.59754352	     45.00000000	     36.18664938	    -31.35461514	   1359.88785422	  -2994.26996587	    144.86212957	    179.99999979	   2166.46321603	     51.21436384	     20.95656277	     13.51999692	     -3.91797243	    -45.00000000	    -45.00000000	     45.00000000	      9.00933345	  -2776.44014239	  -1724.86983726	     13.00523133	    179.99999979	   1084.74119583	    229.11900250	      5.62464815	    -13.09326474
      7.20000000	     34.27682702	     10.43977978	     15.67334023	    -71.27932957	    767.07647767	      8.68958159	     17.26743374	     33.54395649	     45.00000000	     36.09731339	    -31.18506435	   1359.94531165	  -2994.20534338	    144.59942644	    179.99999979	   2166.22948591	     51.33752505	     20.94058255	     13.56275299	     -3.88903871	    -45.00000000	    -45.00000000	     45.00000000	      8.89158173	  -2776.66508487	  -1724.90397591	     13.03990585	    179.99999979	   1084.75011038	    228.76786499	      5.64302373	    -13.08270361
      7.21000000	     34.20231192	     10.36283290	     15.51373470	    -70.63531765	    767.37295971	      8.89029919	     17.30841896	     33.53969242	     45.00000000	     35.94037655	    -30.90954225	   1359.79699095	  -2994.22300382	    144.75853596	    179.99999979	   2166.61533507	     51.37938586	     21.06563786	     13.48407298	     -3.91339057	    -45.00000000	    -45.00000000	     45.00000000	      8.91714221	  -2776.96685111	  -1725.00257040	     13.07829424	    179.99999979	   1084.90631943	    228.42978434	      5.67480332	    -13.03005294
      7.22000000	     34.21593954	     10.21583212	     15.51171721	    -70.07043022	    767.66217067	      9.07828274	     17.16691113	     33.52135320	     45.00000000	     35.96770868	    -30.72590284	   1359.88516824	  -2994.24127103	    144.65421457	    179.99999979	   2166.53780430	     51.52921040	     21.08172535	     13.49764185	     -3.91483734	    -45.00000000	    -45.00000000	     45.00000000	      8.86855338	  -2777.04659167	  -1725.06766728	     13.03891884	    179.99999979	   1084.79123338	    228.03458384	      5.67835607	    -13.05512930
      7.23000000	     34.07466886	     10.04326646	     15.50342312	    -69.58110274	    767.94139378	      9.25014606	     17.23823132	     33.52187193	     45.00000000	     35.83384399	    -30.54047739	   1360.02027835	  -2994.21475494	    144.61743698	    179.99999979	   2166.43517851	     51.68274960	     21.13139101	     13.51917828	     -3.92171967	    -45.00000000	    -45.00000000	     45.00000000	      8.83755362	  -2777.24436943	  -1724.94753338	     13.10812717	    179.99999979	   1084.85009753	    227.69386395	      5.65938120	    -12.97601150
      7.24000000	     34.12577032	     10.00739766	     15.39788078	    -69.16276171	    768.20762455	      9.40271442	     17.13797136	     33.45268652	     45.00000000	     35.95717962	    -30.41557359	   1359.86792787	  -2994.39051555	    144.62369372	    179.99999979	   2166.74883851	     51.78979444	     21.20609108	     13.45534268	     -3.92176714	    -45.00000000	    -45.00000000	     45.00000000	      8.85652052	  -2777.33524814	  -1725.16762830	     13.08442495	    179.99999979	   1084.74755813	    227.34365002	      5.69512312	    -13.04560655
      7.25000000	     34.03214420	      9.86136517	     15.46169543	    -68.81452304	    768.45495733	      9.53204546	     17.16244489	     33.49612180	     45.00000000	     35.71789993	    -30.21715902	   1359.92573597	  -2994.28855563	    144.63371940	    179.99999979	   2166.70913904	     51.95943602	     21.26304315	     13.44511622	     -3.94578844	    -45.00000000	    -45.00000000	     45.00000000	      8.83707563	  -2777.46295067	  -1725.04942041	     13.09661409	    179.99999979	   1084.78503073	    226.99290041	      5.65694722	    -12.96175655
      7.26000000	     34.07353702	      9.75379328	     15.41518078	    -68.52488017	    768.68575070	      9.64052954	     17.08250247	     33.47832630	     45.00000000	     35.84766079	    -30.15249493	   1360.00796429	  -2994.34229424	    144.57579794	    179.99999979	   2166.68534456	     52.12670014	     21.28254624	     13.45085799	     -3.93698680	    -45.00000000	    -45.00000000	     45.00000000	      8.80580592	  -2777.57527266	  -1725.13117624	     13.10036967	    179.99999979	   1084.82593983	    226.68892647	      5.69264750	    -12.98060001
      7.27000000	     33.92415377	      9.69333174	     15.47150984	    -68.29612927	    768.89331125	      9.72749659	     17.19169229	     33.60953012	     45.00000000	     35.53332758	    -30.00574556	   1359.82941836	  -2994.27547786	    144.63064756	    179.99999979	   2166.92247451	     52.21842885	     21.37997823	     13.36557142	     -3.97747234	    -45.00000000	    -45.00000000	     45.00000000	      8.80138934	  -2777.71538433	  -1724.92419964	     13.18254811	    179.99999979	   1084.90684750	    226.42577628	      5.64444993	    -12.87555086
      7.28000000	     34.04605823	      9.60401485	     15.38096679	    -68.11881213	    769.08337731	      9.79826362	     17.04271221	     33.47154980	     45.00000000	     35.75157683	    -29.92879511	   1359.96207984	  -2994.38858864	    144.57170099	    179.99999979	   2166.91713402	     52.39021783	     21.38562809	     13.37907800	     -3.94741225	    -45.00000000	    -45.00000000	     45.00000000	      8.81232075	  -2777.73884607	  -1725.11832205	     13.17765573	    179.99999979	   1084.83675609	    226.11497810	      5.69293094	    -12.95679203
      7.29000000	     33.99167413	      9.61076196	     15.45200349	    -67.99678009	    769.25157336	      9.85274657	     17.14141869	     33.54505158	     45.00000000	     35.63535559	    -29.81095093	   1359.91185660	  -2994.35559190	    144.56018391	    179.99999979	   2166.73238342	     52.53961491	     21.43857929	     13.38054785	     -4.00907368	    -45.00000000	    -45.00000000	     45.00000000	      8.81842802	  -2777.89239657	  -1725.03727920	     13.09236102	    179.99999979	   1084.84040346	    225.84652373	      5.61306290	    -12.84969622
      7.30000000	     34.07764207	      9.48086158	     15.36259223	    -67.93029891	    769.39847827	      9.89113552	     17.02625935	     33.48968260	     45.00000000	     35.73589732	    -29.76685163	   1359.98640929	  -2994.30937032	    144.54997462	    179.99999979	   2166.89735314	     52.66179196	     21.43016270	     13.34305099	     -3.95960971	    -45.00000000	    -45.00000000	     45.00000000	      8.80914071	  -2777.86393882	  -1725.13046355	     13.20618280	    179.99999979	   1084.86968730	    225.56844760	      5.69230767	    -12.92809629
      7.31000000	     34.02025943	      9.55032303	     15.46734279	    -67.91918557	    769.52459142	      9.91263913	     17.12520052	     33.58468089	     45.00000000	     35.67509491	    -29.72072326	   1359.79319438	  -2994.48095421	    144.57800159	    179.99999979	   2166.98099334	     52.73327910	     21.56880682	     13.29417507	     -4.05931315	    -45.00000000	    -45.00000000	     45.00000000	      8.82963279	  -2778.05211186	  -1725.00339540	     13.03707208	    179.99999979	   1084.88535978	    225.32314262	      5.58203903	    -12.78974098
